<svg width="32" height="32" xmlns="http://www.w3.org/2000/svg">

 <title/>
 <g>
  <title>background</title>
  <rect fill="none" id="canvas_background" height="402" width="582" y="-1" x="-1"/>
 </g>
 <g>
  <title>Layer 1</title>
  <path fill="#ffffff" id="svg_1" d="m16,31a15,15 0 1 1 15,-15a15,15 0 0 1 -15,15zm0,-28a13,13 0 1 0 13,13a13,13 0 0 0 -13,-13z" class="cls-1"/>
  <path fill="#ffffff" id="svg_2" d="m21,17l-10,0a1,1 0 0 1 0,-2l10,0a1,1 0 0 1 0,2z" class="cls-1"/>
  <path fill="#ffffff" id="svg_3" d="m21,12l-10,0a1,1 0 0 1 0,-2l10,0a1,1 0 0 1 0,2z" class="cls-1"/>
  <path fill="#ffffff" id="svg_4" d="m21,22l-10,0a1,1 0 0 1 0,-2l10,0a1,1 0 0 1 0,2z" class="cls-1"/>
 </g>
</svg>