<?xml version="1.0" encoding="utf-8"?>
<!-- Generator: Adobe Illustrator 19.0.0, SVG Export Plug-In . SVG Version: 6.00 Build 0)  -->
<svg version="1.1" id="Layer_1" xmlns="http://www.w3.org/2000/svg" xmlns:xlink="http://www.w3.org/1999/xlink" x="0px" y="0px"
	 viewBox="0 0 96 96" style="enable-background:new 0 0 96 96;" xml:space="preserve">
<style type="text/css">
	.st0{fill:#333333;}
</style>
<g id="XMLID_2_">
	<path id="XMLID_8_" class="st0" d="M34.3,70.9h27.5V57.2H34.3V70.9z M66.3,70.9h4.6V38.8c0-0.3-0.1-0.8-0.4-1.4
		c-0.2-0.6-0.5-1-0.7-1.2L59.8,26.2c-0.2-0.2-0.6-0.5-1.2-0.7c-0.6-0.2-1-0.4-1.4-0.4V40c0,1-0.3,1.8-1,2.4s-1.5,1-2.4,1H33.1
		c-1,0-1.8-0.3-2.4-1c-0.7-0.7-1-1.5-1-2.4V25.1h-4.6v45.8h4.6V56c0-1,0.3-1.8,1-2.4c0.7-0.7,1.5-1,2.4-1h29.8c1,0,1.8,0.3,2.4,1
		c0.7,0.7,1,1.5,1,2.4V70.9z M52.6,37.7V26.2c0-0.3-0.1-0.6-0.3-0.8s-0.5-0.3-0.8-0.3h-6.9c-0.3,0-0.6,0.1-0.8,0.3s-0.3,0.5-0.3,0.8
		v11.5c0,0.3,0.1,0.6,0.3,0.8s0.5,0.3,0.8,0.3h6.9c0.3,0,0.6-0.1,0.8-0.3S52.6,38,52.6,37.7z M75.5,38.8v33.2c0,1-0.3,1.8-1,2.4
		c-0.7,0.7-1.5,1-2.4,1H23.9c-1,0-1.8-0.3-2.4-1c-0.7-0.7-1-1.5-1-2.4V23.9c0-1,0.3-1.8,1-2.4s1.5-1,2.4-1h33.2c1,0,2,0.2,3.2,0.7
		c1.1,0.5,2.1,1.1,2.7,1.7l10,10c0.7,0.7,1.2,1.6,1.7,2.7C75.3,36.8,75.5,37.9,75.5,38.8z"/>
</g>
</svg>
